REM DIRINDEX 1\3,1\4,1\5,1\6,1\2\7,1\2\8,1\2\9,1\10
REM DIRNAME cjc056,folder01,folder02,folder03,folder04,folder05,folder06,folder07,folder08,folder09
TITLE ""
FILE "2-10 Level 4-613-626.mp3" MP3
  TRACK 01 AUDIO
    TITLE "0:"
    INDEX 01 00:00:00
  TRACK 02 AUDIO
    TITLE "7:cjc056_2114"
    INDEX 01 00:00:07
  TRACK 03 AUDIO
    TITLE "0:"
    INDEX 01 00:01:24
  TRACK 04 AUDIO
    TITLE "8:cjc056_2115"
    INDEX 01 00:01:40
  TRACK 05 AUDIO
    TITLE "0:"
    INDEX 01 00:03:17
  TRACK 06 AUDIO
    TITLE "9:cjc056_2116"
    INDEX 01 00:03:31
  TRACK 07 AUDIO
    TITLE "0:"
    INDEX 01 00:05:50
  TRACK 08 AUDIO
    TITLE "7:cjc056_2117"
    INDEX 01 00:06:30
  TRACK 09 AUDIO
    TITLE "0:"
    INDEX 01 00:07:45
  TRACK 10 AUDIO
    TITLE "8:cjc056_2118"
    INDEX 01 00:07:58
  TRACK 11 AUDIO
    TITLE "0:"
    INDEX 01 00:09:36
  TRACK 12 AUDIO
    TITLE "9:cjc056_2119"
    INDEX 01 00:09:49
  TRACK 13 AUDIO
    TITLE "0:"
    INDEX 01 00:11:66
  TRACK 14 AUDIO
    TITLE "7:cjc056_2120"
    INDEX 01 00:12:44
  TRACK 15 AUDIO
    TITLE "0:"
    INDEX 01 00:13:49
  TRACK 16 AUDIO
    TITLE "8:cjc056_2121"
    INDEX 01 00:13:65
  TRACK 17 AUDIO
    TITLE "0:"
    INDEX 01 00:15:48
  TRACK 18 AUDIO
    TITLE "9:cjc056_2122"
    INDEX 01 00:15:60
  TRACK 19 AUDIO
    TITLE "0:"
    INDEX 01 00:17:65
  TRACK 20 AUDIO
    TITLE "7:cjc056_2123"
    INDEX 01 00:18:39
  TRACK 21 AUDIO
    TITLE "0:"
    INDEX 01 00:19:44
  TRACK 22 AUDIO
    TITLE "8:cjc056_2124"
    INDEX 01 00:19:60
  TRACK 23 AUDIO
    TITLE "0:"
    INDEX 01 00:21:19
  TRACK 24 AUDIO
    TITLE "9:cjc056_2125"
    INDEX 01 00:21:33
  TRACK 25 AUDIO
    TITLE "0:"
    INDEX 01 00:24:06
  TRACK 26 AUDIO
    TITLE "8:cjc056_2126"
    INDEX 01 00:24:29
  TRACK 27 AUDIO
    TITLE "0:"
    INDEX 01 00:25:50
  TRACK 28 AUDIO
    TITLE "9:cjc056_2127"
    INDEX 01 00:25:62
  TRACK 29 AUDIO
    TITLE "0:"
    INDEX 01 00:27:30
  TRACK 30 AUDIO
    TITLE "7:cjc056_2128"
    INDEX 01 00:28:06
  TRACK 31 AUDIO
    TITLE "0:"
    INDEX 01 00:29:23
  TRACK 32 AUDIO
    TITLE "8:cjc056_2129"
    INDEX 01 00:29:36
  TRACK 33 AUDIO
    TITLE "0:"
    INDEX 01 00:30:61
  TRACK 34 AUDIO
    TITLE "9:cjc056_2130"
    INDEX 01 00:31:00
  TRACK 35 AUDIO
    TITLE "0:"
    INDEX 01 00:33:52
  TRACK 36 AUDIO
    TITLE "7:cjc056_2131"
    INDEX 01 00:34:28
  TRACK 37 AUDIO
    TITLE "0:"
    INDEX 01 00:35:23
  TRACK 38 AUDIO
    TITLE "8:cjc056_2132"
    INDEX 01 00:35:39
  TRACK 39 AUDIO
    TITLE "0:"
    INDEX 01 00:36:50
  TRACK 40 AUDIO
    TITLE "9:cjc056_2133"
    INDEX 01 00:36:64
  TRACK 41 AUDIO
    TITLE "0:"
    INDEX 01 00:39:03
  TRACK 42 AUDIO
    TITLE "7:cjc056_2134"
    INDEX 01 00:39:52
  TRACK 43 AUDIO
    TITLE "0:"
    INDEX 01 00:40:73
  TRACK 44 AUDIO
    TITLE "8:cjc056_2135"
    INDEX 01 00:41:10
  TRACK 45 AUDIO
    TITLE "0:"
    INDEX 01 00:42:45
  TRACK 46 AUDIO
    TITLE "9:cjc056_2136"
    INDEX 01 00:42:59
  TRACK 47 AUDIO
    TITLE "0:"
    INDEX 01 00:44:73
  TRACK 48 AUDIO
    TITLE "7:cjc056_2137"
    INDEX 01 00:45:51
  TRACK 49 AUDIO
    TITLE "0:"
    INDEX 01 00:46:54
  TRACK 50 AUDIO
    TITLE "8:cjc056_2138"
    INDEX 01 00:46:66
  TRACK 51 AUDIO
    TITLE "0:"
    INDEX 01 00:48:24
  TRACK 52 AUDIO
    TITLE "9:cjc056_2139"
    INDEX 01 00:48:38
  TRACK 53 AUDIO
    TITLE "0:"
    INDEX 01 00:50:41
  TRACK 54 AUDIO
    TITLE "7:cjc056_2140"
    INDEX 01 00:51:16
  TRACK 55 AUDIO
    TITLE "0:"
    INDEX 01 00:52:28
  TRACK 56 AUDIO
    TITLE "8:cjc056_2141"
    INDEX 01 00:52:39
  TRACK 57 AUDIO
    TITLE "0:"
    INDEX 01 00:53:64
  TRACK 58 AUDIO
    TITLE "9:cjc056_2142"
    INDEX 01 00:54:05
  TRACK 59 AUDIO
    TITLE "0:"
    INDEX 01 00:55:50
  TRACK 60 AUDIO
    TITLE "7:cjc056_2143"
    INDEX 01 00:56:27
  TRACK 61 AUDIO
    TITLE "0:"
    INDEX 01 00:57:33
  TRACK 62 AUDIO
    TITLE "8:cjc056_2144"
    INDEX 01 00:57:48
  TRACK 63 AUDIO
    TITLE "0:"
    INDEX 01 00:58:62
  TRACK 64 AUDIO
    TITLE "9:cjc056_2145"
    INDEX 01 00:58:67
  TRACK 65 AUDIO
    TITLE "0:"
    INDEX 01 01:00:41
  TRACK 66 AUDIO
    TITLE "7:cjc056_2146"
    INDEX 01 01:01:19
  TRACK 67 AUDIO
    TITLE "0:"
    INDEX 01 01:02:30
  TRACK 68 AUDIO
    TITLE "8:cjc056_2147"
    INDEX 01 01:02:44
  TRACK 69 AUDIO
    TITLE "0:"
    INDEX 01 01:03:63
  TRACK 70 AUDIO
    TITLE "9:cjc056_2148"
    INDEX 01 01:04:03
  TRACK 71 AUDIO
    TITLE "0:"
    INDEX 01 01:05:66
  TRACK 72 AUDIO
    TITLE "7:cjc056_2149"
    INDEX 01 01:06:43
  TRACK 73 AUDIO
    TITLE "0:"
    INDEX 01 01:07:63
  TRACK 74 AUDIO
    TITLE "8:cjc056_2150"
    INDEX 01 01:08:01
  TRACK 75 AUDIO
    TITLE "0:"
    INDEX 01 01:09:38
  TRACK 76 AUDIO
    TITLE "9:cjc056_2151"
    INDEX 01 01:09:54
  TRACK 77 AUDIO
    TITLE "0:"
    INDEX 01 01:11:47
  TRACK 78 AUDIO
    TITLE "7:cjc056_2152"
    INDEX 01 01:12:23
  TRACK 79 AUDIO
    TITLE "0:"
    INDEX 01 01:13:24
  TRACK 80 AUDIO
    TITLE "8:cjc056_2153"
    INDEX 01 01:13:38
  TRACK 81 AUDIO
    TITLE "0:"
    INDEX 01 01:14:51
  TRACK 82 AUDIO
    TITLE "9:cjc056_2154"
    INDEX 01 01:14:63
  TRACK 83 AUDIO
    TITLE "0:"
    INDEX 01 01:16:65
  TRACK 84 AUDIO
    TITLE "7:cjc056_2155"
    INDEX 01 01:17:43
  TRACK 85 AUDIO
    TITLE "0:"
    INDEX 01 01:18:53
  TRACK 86 AUDIO
    TITLE "8:cjc056_2156"
    INDEX 01 01:18:62
  TRACK 87 AUDIO
    TITLE "0:"
    INDEX 01 01:20:06
  TRACK 88 AUDIO
    TITLE "9:cjc056_2157"
    INDEX 01 01:20:20
  TRACK 89 AUDIO
    TITLE "0:"
    INDEX 01 01:21:61
